<mxfile host="Electron" modified="2023-05-05T14:51:32.051Z" agent="Mozilla/5.0 (Macintosh; Intel Mac OS X 10_15_7) AppleWebKit/537.36 (KHTML, like Gecko) draw.io/21.2.1 Chrome/112.0.5615.87 Electron/24.1.2 Safari/537.36" etag="Ha0-kdczCKYzqg-r5Zv5" version="21.2.1" type="device">
  <diagram id="VveE3P3fXgZeAthQIM0d" name="Page-1">
    <mxGraphModel dx="1026" dy="685" grid="1" gridSize="10" guides="1" tooltips="1" connect="1" arrows="1" fold="1" page="1" pageScale="1" pageWidth="850" pageHeight="1100" math="0" shadow="0">
      <root>
        <mxCell id="0" />
        <mxCell id="1" parent="0" />
        <mxCell id="_FY4A-5BQeXvbOgV4QS1-3" value="" style="rounded=0;whiteSpace=wrap;html=1;" vertex="1" parent="1">
          <mxGeometry x="10" y="60" width="560" height="360" as="geometry" />
        </mxCell>
        <mxCell id="62ju-Dj7E6-g3df-A6Tz-1" value="&lt;font style=&quot;font-size: 14px;&quot;&gt;Entered in Error&lt;/font&gt;" style="rounded=1;whiteSpace=wrap;html=1;fillColor=#66B2FF;strokeWidth=5;" parent="1" vertex="1">
          <mxGeometry x="650" y="205" width="120" height="30" as="geometry" />
        </mxCell>
        <mxCell id="62ju-Dj7E6-g3df-A6Tz-2" style="edgeStyle=orthogonalEdgeStyle;rounded=0;orthogonalLoop=1;jettySize=auto;html=1;exitX=0.5;exitY=1;exitDx=0;exitDy=0;entryX=0.5;entryY=0;entryDx=0;entryDy=0;fontSize=14;strokeWidth=3;" parent="1" source="62ju-Dj7E6-g3df-A6Tz-3" target="62ju-Dj7E6-g3df-A6Tz-13" edge="1">
          <mxGeometry relative="1" as="geometry">
            <mxPoint x="80" y="190" as="targetPoint" />
          </mxGeometry>
        </mxCell>
        <mxCell id="62ju-Dj7E6-g3df-A6Tz-3" value="&lt;font style=&quot;font-size: 14px;&quot;&gt;Requested&lt;/font&gt;" style="rounded=1;whiteSpace=wrap;html=1;fillColor=#66B2FF;" parent="1" vertex="1">
          <mxGeometry x="20" y="175" width="120" height="30" as="geometry" />
        </mxCell>
        <mxCell id="62ju-Dj7E6-g3df-A6Tz-4" style="edgeStyle=orthogonalEdgeStyle;rounded=0;orthogonalLoop=1;jettySize=auto;html=1;exitX=1;exitY=0.5;exitDx=0;exitDy=0;entryX=0;entryY=0.5;entryDx=0;entryDy=0;fontSize=14;strokeWidth=3;" parent="1" source="62ju-Dj7E6-g3df-A6Tz-3" target="62ju-Dj7E6-g3df-A6Tz-23" edge="1">
          <mxGeometry relative="1" as="geometry" />
        </mxCell>
        <mxCell id="62ju-Dj7E6-g3df-A6Tz-7" style="edgeStyle=orthogonalEdgeStyle;rounded=0;jumpStyle=arc;jumpSize=6;orthogonalLoop=1;jettySize=auto;html=1;exitX=1;exitY=0.5;exitDx=0;exitDy=0;fontSize=14;startArrow=classic;startFill=1;entryX=0.5;entryY=0;entryDx=0;entryDy=0;strokeWidth=3;endArrow=none;endFill=0;" parent="1" source="62ju-Dj7E6-g3df-A6Tz-8" target="62ju-Dj7E6-g3df-A6Tz-15" edge="1">
          <mxGeometry relative="1" as="geometry">
            <mxPoint x="470" y="250" as="targetPoint" />
          </mxGeometry>
        </mxCell>
        <mxCell id="62ju-Dj7E6-g3df-A6Tz-8" value="&lt;font style=&quot;font-size: 14px;&quot;&gt;Cancelled&lt;/font&gt;" style="rounded=1;whiteSpace=wrap;html=1;fillColor=#66B2FF;strokeWidth=5;" parent="1" vertex="1">
          <mxGeometry x="220" y="235" width="120" height="30" as="geometry" />
        </mxCell>
        <mxCell id="62ju-Dj7E6-g3df-A6Tz-9" style="edgeStyle=orthogonalEdgeStyle;rounded=0;orthogonalLoop=1;jettySize=auto;html=1;exitX=0.5;exitY=1;exitDx=0;exitDy=0;entryX=0.5;entryY=0;entryDx=0;entryDy=0;fontSize=14;strokeWidth=3;" parent="1" source="62ju-Dj7E6-g3df-A6Tz-13" target="62ju-Dj7E6-g3df-A6Tz-24" edge="1">
          <mxGeometry relative="1" as="geometry" />
        </mxCell>
        <mxCell id="62ju-Dj7E6-g3df-A6Tz-10" style="edgeStyle=orthogonalEdgeStyle;rounded=0;jumpStyle=arc;jumpSize=6;orthogonalLoop=1;jettySize=auto;html=1;exitX=0.75;exitY=0;exitDx=0;exitDy=0;fontSize=14;startArrow=none;startFill=0;entryX=0;entryY=0.5;entryDx=0;entryDy=0;strokeWidth=3;" parent="1" source="62ju-Dj7E6-g3df-A6Tz-13" target="62ju-Dj7E6-g3df-A6Tz-8" edge="1">
          <mxGeometry relative="1" as="geometry">
            <mxPoint x="110" y="245" as="targetPoint" />
          </mxGeometry>
        </mxCell>
        <mxCell id="62ju-Dj7E6-g3df-A6Tz-11" style="edgeStyle=orthogonalEdgeStyle;rounded=0;jumpStyle=arc;jumpSize=6;orthogonalLoop=1;jettySize=auto;html=1;exitX=1;exitY=0.5;exitDx=0;exitDy=0;entryX=0;entryY=0.5;entryDx=0;entryDy=0;fontSize=14;startArrow=none;startFill=0;strokeWidth=3;" parent="1" source="62ju-Dj7E6-g3df-A6Tz-13" target="62ju-Dj7E6-g3df-A6Tz-15" edge="1">
          <mxGeometry relative="1" as="geometry" />
        </mxCell>
        <mxCell id="62ju-Dj7E6-g3df-A6Tz-12" style="edgeStyle=orthogonalEdgeStyle;rounded=0;jumpStyle=arc;jumpSize=6;orthogonalLoop=1;jettySize=auto;html=1;exitX=0.75;exitY=1;exitDx=0;exitDy=0;fontSize=14;startArrow=none;startFill=0;strokeWidth=3;entryX=0;entryY=0.25;entryDx=0;entryDy=0;" parent="1" source="62ju-Dj7E6-g3df-A6Tz-13" target="62ju-Dj7E6-g3df-A6Tz-19" edge="1">
          <mxGeometry relative="1" as="geometry">
            <mxPoint x="120" y="335" as="targetPoint" />
          </mxGeometry>
        </mxCell>
        <mxCell id="62ju-Dj7E6-g3df-A6Tz-13" value="&lt;span style=&quot;font-size: 14px;&quot;&gt;Accepted&lt;/span&gt;" style="rounded=1;whiteSpace=wrap;html=1;fillColor=#66B2FF;" parent="1" vertex="1">
          <mxGeometry x="20" y="270" width="120" height="30" as="geometry" />
        </mxCell>
        <mxCell id="62ju-Dj7E6-g3df-A6Tz-14" style="edgeStyle=orthogonalEdgeStyle;rounded=0;jumpStyle=arc;jumpSize=6;orthogonalLoop=1;jettySize=auto;html=1;exitX=0.75;exitY=1;exitDx=0;exitDy=0;fontSize=14;startArrow=none;startFill=0;entryX=1;entryY=0.5;entryDx=0;entryDy=0;strokeWidth=3;" parent="1" source="62ju-Dj7E6-g3df-A6Tz-15" target="62ju-Dj7E6-g3df-A6Tz-24" edge="1">
          <mxGeometry relative="1" as="geometry">
            <mxPoint x="505" y="375" as="targetPoint" />
          </mxGeometry>
        </mxCell>
        <mxCell id="62ju-Dj7E6-g3df-A6Tz-15" value="&lt;span style=&quot;font-size: 14px;&quot;&gt;In Progress&lt;/span&gt;" style="rounded=1;whiteSpace=wrap;html=1;fillColor=#66B2FF;" parent="1" vertex="1">
          <mxGeometry x="415" y="270" width="120" height="30" as="geometry" />
        </mxCell>
        <mxCell id="62ju-Dj7E6-g3df-A6Tz-16" style="edgeStyle=orthogonalEdgeStyle;rounded=0;orthogonalLoop=1;jettySize=auto;html=1;exitX=0.5;exitY=0;exitDx=0;exitDy=0;entryX=0.5;entryY=1;entryDx=0;entryDy=0;fontSize=14;jumpStyle=arc;strokeWidth=3;" parent="1" source="62ju-Dj7E6-g3df-A6Tz-19" target="62ju-Dj7E6-g3df-A6Tz-8" edge="1">
          <mxGeometry relative="1" as="geometry" />
        </mxCell>
        <mxCell id="62ju-Dj7E6-g3df-A6Tz-17" style="edgeStyle=orthogonalEdgeStyle;rounded=0;jumpStyle=arc;jumpSize=6;orthogonalLoop=1;jettySize=auto;html=1;exitX=1;exitY=0.5;exitDx=0;exitDy=0;fontSize=14;startArrow=classic;startFill=1;strokeWidth=3;" parent="1" source="62ju-Dj7E6-g3df-A6Tz-19" target="62ju-Dj7E6-g3df-A6Tz-15" edge="1">
          <mxGeometry relative="1" as="geometry">
            <mxPoint x="460" y="335" as="targetPoint" />
          </mxGeometry>
        </mxCell>
        <mxCell id="62ju-Dj7E6-g3df-A6Tz-18" style="edgeStyle=orthogonalEdgeStyle;rounded=0;jumpStyle=arc;jumpSize=6;orthogonalLoop=1;jettySize=auto;html=1;exitX=0;exitY=0.75;exitDx=0;exitDy=0;fontSize=14;startArrow=none;startFill=0;entryX=0.75;entryY=0;entryDx=0;entryDy=0;strokeWidth=3;" parent="1" source="62ju-Dj7E6-g3df-A6Tz-19" target="62ju-Dj7E6-g3df-A6Tz-24" edge="1">
          <mxGeometry relative="1" as="geometry">
            <mxPoint x="110" y="365" as="targetPoint" />
          </mxGeometry>
        </mxCell>
        <mxCell id="62ju-Dj7E6-g3df-A6Tz-19" value="&lt;span style=&quot;font-size: 14px;&quot;&gt;On-Hold&lt;/span&gt;" style="rounded=1;whiteSpace=wrap;html=1;fillColor=#66B2FF;" parent="1" vertex="1">
          <mxGeometry x="220" y="320" width="120" height="30" as="geometry" />
        </mxCell>
        <mxCell id="62ju-Dj7E6-g3df-A6Tz-20" style="edgeStyle=orthogonalEdgeStyle;rounded=0;orthogonalLoop=1;jettySize=auto;html=1;exitX=0.5;exitY=1;exitDx=0;exitDy=0;entryX=0.5;entryY=0;entryDx=0;entryDy=0;fontSize=14;strokeWidth=3;" parent="1" source="62ju-Dj7E6-g3df-A6Tz-22" target="62ju-Dj7E6-g3df-A6Tz-3" edge="1">
          <mxGeometry relative="1" as="geometry" />
        </mxCell>
        <mxCell id="62ju-Dj7E6-g3df-A6Tz-21" style="edgeStyle=orthogonalEdgeStyle;rounded=0;orthogonalLoop=1;jettySize=auto;html=1;exitX=1;exitY=0.5;exitDx=0;exitDy=0;entryX=0;entryY=0.5;entryDx=0;entryDy=0;fontSize=14;strokeWidth=3;" parent="1" target="62ju-Dj7E6-g3df-A6Tz-1" edge="1">
          <mxGeometry relative="1" as="geometry">
            <mxPoint x="570" y="220" as="sourcePoint" />
          </mxGeometry>
        </mxCell>
        <mxCell id="62ju-Dj7E6-g3df-A6Tz-22" value="Draft (optional)" style="rounded=1;whiteSpace=wrap;html=1;fontSize=14;strokeWidth=6;fillColor=#66B2FF;" parent="1" vertex="1">
          <mxGeometry x="20" y="80" width="120" height="60" as="geometry" />
        </mxCell>
        <mxCell id="62ju-Dj7E6-g3df-A6Tz-23" value="&lt;span style=&quot;font-size: 14px;&quot;&gt;Rejected&lt;/span&gt;" style="rounded=1;whiteSpace=wrap;html=1;fillColor=#66B2FF;strokeWidth=5;" parent="1" vertex="1">
          <mxGeometry x="220" y="175" width="120" height="30" as="geometry" />
        </mxCell>
        <mxCell id="62ju-Dj7E6-g3df-A6Tz-24" value="&lt;span style=&quot;font-size: 14px;&quot;&gt;Completed or Failed&lt;/span&gt;" style="rounded=1;whiteSpace=wrap;html=1;fillColor=#66B2FF;strokeWidth=5;" parent="1" vertex="1">
          <mxGeometry x="20" y="375" width="120" height="35" as="geometry" />
        </mxCell>
        <mxCell id="62ju-Dj7E6-g3df-A6Tz-25" style="edgeStyle=orthogonalEdgeStyle;rounded=0;jumpStyle=arc;jumpSize=6;orthogonalLoop=1;jettySize=auto;html=1;exitX=0.5;exitY=1;exitDx=0;exitDy=0;entryX=0.5;entryY=0;entryDx=0;entryDy=0;fontSize=14;startArrow=none;startFill=0;strokeWidth=3;" parent="1" source="62ju-Dj7E6-g3df-A6Tz-26" target="62ju-Dj7E6-g3df-A6Tz-22" edge="1">
          <mxGeometry relative="1" as="geometry" />
        </mxCell>
        <mxCell id="62ju-Dj7E6-g3df-A6Tz-26" value="" style="ellipse;whiteSpace=wrap;html=1;aspect=fixed;fontSize=14;strokeColor=#33001A;strokeWidth=5;fillColor=#33001A;" parent="1" vertex="1">
          <mxGeometry x="70" y="20" width="20" height="20" as="geometry" />
        </mxCell>
        <mxCell id="_FY4A-5BQeXvbOgV4QS1-1" style="rounded=0;orthogonalLoop=1;jettySize=auto;html=1;exitX=1;exitY=1;exitDx=0;exitDy=0;entryX=0;entryY=0;entryDx=0;entryDy=0;fontSize=14;strokeWidth=3;" edge="1" parent="1" source="62ju-Dj7E6-g3df-A6Tz-3" target="62ju-Dj7E6-g3df-A6Tz-8">
          <mxGeometry relative="1" as="geometry">
            <mxPoint x="150" y="200" as="sourcePoint" />
            <mxPoint x="230" y="200" as="targetPoint" />
          </mxGeometry>
        </mxCell>
        <mxCell id="_FY4A-5BQeXvbOgV4QS1-4" value="Can be reached from any other status." style="text;html=1;align=center;verticalAlign=middle;resizable=0;points=[];autosize=1;strokeColor=none;fillColor=none;" vertex="1" parent="1">
          <mxGeometry x="590" y="240" width="230" height="30" as="geometry" />
        </mxCell>
      </root>
    </mxGraphModel>
  </diagram>
</mxfile>
